<?xml version="1.0" encoding="utf-8"?>
<!-- Generator: Adobe Illustrator 19.2.0, SVG Export Plug-In . SVG Version: 6.00 Build 0)  -->
<svg version="1.1" id="Layer_1" xmlns="http://www.w3.org/2000/svg" xmlns:xlink="http://www.w3.org/1999/xlink" x="0px" y="0px"
	 viewBox="0 0 373.6 452.1" style="enable-background:new 0 0 373.6 452.1;" xml:space="preserve">
<style type="text/css">
	.st0{fill:#E8E6E7;}
	.st1{fill:#FDD7BE;}
	.st2{stroke:#000000;stroke-linecap:round;stroke-miterlimit:10;}
	.st3{fill:#CBB29B;}
	.st4{fill:#E1BDA8;}
	.st5{opacity:0.63;}
	.st6{fill:#564134;}
	.st7{fill:#DC9195;}
	.st8{fill:#C9878D;}
	.st9{opacity:0.63;fill:#564134;}
	.st10{fill:#434343;}
	.st11{opacity:0.61;fill:#E2B473;}
	.st12{opacity:0.34;}
	.st13{fill:#E2B473;}
	.st14{opacity:0.62;fill:#564134;}
	.st15{opacity:0.83;fill:#E1BDA8;}
	.st16{opacity:0.83;fill:#CCAA9B;}
</style>
<g>
	<path class="st0" d="M373.6,265.3c0,80.5-50.9,149.1-122.3,175.4v-50.4h-0.7l24.3-14.1l28.2-16.2v-69.8l0,0v-29.2l13.7-17.9v-38
		L303,196v-1.7V192v-73C346,153.3,373.6,206,373.6,265.3z"/>
	<path class="st0" d="M123,390.2H121v49.9C50.3,413.5,0,345.3,0,265.3C0,206,27.6,153.3,70.5,119v22.8l0,0v54.6l-13.3,8.5v38
		l13.3,17V290l0,0v69.8l29.2,16.8l0.4,0.2L123,390.2z"/>
	<path class="st1" d="M270.4,378.8l-19.1,61.8c-5.4,2-11,3.8-16.6,5.2c-4.5,1.2-9.2,2.2-13.8,3.1c-11,2-22.3,3.1-33.9,3.1h-0.2
		c-11.6,0-23-1.1-34.1-3.1c-4.4-0.8-8.7-1.8-13-2.9c-6.4-1.6-12.7-3.6-18.8-5.9l-18.2-61.6l20.3,11.7l63.7,36.8l63.8-36.8
		L270.4,378.8z"/>
	<line x1="70.6" y1="239.9" x2="70.5" y2="239.9"/>
	<polygon class="st1" points="316.8,204.9 316.8,242.9 303.1,260.8 303.1,196 	"/>
	<line x1="70.6" y1="192" x2="70.5" y2="192"/>
	<polygon class="st1" points="70.5,196.5 70.5,259.9 57.2,242.9 57.2,204.9 	"/>
	<line class="st2" x1="212.6" y1="390.2" x2="212.6" y2="390.2"/>
	<line class="st2" x1="161" y1="390.2" x2="161" y2="390.2"/>
	<line x1="303.1" y1="192" x2="303.1" y2="141.9"/>
	<line x1="123.1" y1="390" x2="100.1" y2="377"/>
	<line x1="99.7" y1="376.8" x2="99" y2="376.4"/>
	<path class="st2" d="M146.5,390"/>
	<path class="st2" d="M122.8,390"/>
	<path class="st3" d="M258.9,335.6l-5.7-9.8l-12.5-21.6l-7.8-13.6h-91.5l-8.1,14.1l-11.9,20.6l-6.4,11.1l-44.4-46.3v69.8l29.2,16.8
		l0.4,0.2l23,13.2l63.7,36.8l63.8-36.8l24.3-14.1l28.2-16.2v-69.8L258.9,335.6z M228.8,390.2h-16.2l14.1-24.5l-20-44.6h-39.9
		l-20,44.6l14.1,24.5h-15.1l-31.4-34.5l7.8-12l6.1-9.5l16.3-25.2l1.2-1.9l40.9,2l42-2l1.2,1.9l16.5,25.4l5.4,8.3l8.4,12.9
		L228.8,390.2z"/>
	<polygon class="st1" points="146.9,365.7 161,390.2 145.9,390.2 114.5,355.7 122.2,343.8 128.4,334.3 144.7,309.1 145.9,307.3 
		150.1,307.5 147.5,309.1 166.9,321.2 	"/>
	<polygon class="st4" points="260.2,355.7 228.8,390.2 212.6,390.2 226.7,365.7 206.8,321.2 227.1,309.1 224.5,307.5 228.8,307.3 
		230,309.1 246.4,334.5 251.8,342.8 	"/>
	<polygon class="st1" points="303,141.8 303,290.1 258.9,335.6 253.2,325.7 240.7,304.1 232.9,290.5 141.4,290.5 133.3,304.6 
		121.4,325.3 115,336.4 70.5,290.1 70.5,141.8 118,92.4 119.3,91 137.8,72.6 235.8,72.6 254.3,91 274.9,111.7 	"/>
	<polygon class="st3" points="303,73.9 303,141.8 274.9,111.7 254.3,91 235.8,72.6 137.8,72.6 119.3,91 118,92.4 70.5,141.8 
		70.5,73.9 186.8,5.8 	"/>
	<g class="st5">
		<polygon class="st6" points="303,73.9 303,141.8 274.9,111.7 254.3,91 235.8,72.6 186.8,72.6 186.8,5.8 		"/>
	</g>
	<polygon class="st4" points="303,141.8 303,290.1 258.9,335.6 253.2,325.7 240.7,304.1 232.9,290.5 186.8,290.5 186.8,72.6 
		235.8,72.6 254.3,91 274.9,111.7 	"/>
	<polygon class="st7" points="186.8,309.3 186.8,321.2 166.9,321.2 147.5,309.1 150.1,307.5 	"/>
	<polygon class="st8" points="224.5,307.5 227.1,309.1 206.8,321.2 186.8,321.2 186.8,309.3 	"/>
	<polygon class="st9" points="303,290.1 303,359.9 274.9,376.2 250.5,390.2 186.8,427 186.8,321.2 206.8,321.2 226.7,365.7 
		212.6,390.2 228.8,390.2 260.2,355.7 251.8,342.8 246.4,334.5 230,309.1 228.8,307.3 186.8,309.3 186.8,290.5 232.9,290.5 
		240.7,304.1 253.2,325.7 258.9,335.6 	"/>
</g>
<g id="Layer_2">
	<path class="st10" d="M296.8,187.7l-2.8-7.1c-1.4-3.2-4.5-5.2-7.9-5.2h-71c-3.4,0-6.5,2-7.9,5.2l-2.8,7.1h-28.4l-2.9-7.2
		c-1.3-3.1-4.4-5.1-7.8-5.1H94.1c-3.4,0-6.4,2-7.8,5.1l-2.9,7.2h-13v8.7h10.3c0,0.5,0.1,1,0.2,1.4l6.2,29.4c0.8,3.9,4.3,6.7,8.3,6.7
		H164c4,0,7.4-2.8,8.3-6.7l6.2-29.4c0.1-0.5,0.2-1,0.2-1.4h23c0,0.5,0.1,1,0.2,1.5l6.1,29.2c0.8,4,4.4,6.9,8.4,6.9h68.3
		c4.1,0,7.6-2.9,8.4-6.9l6.1-29.2c0.1-0.5,0.2-1,0.2-1.5h3.7v-8.7H296.8z M173.7,199.4l-5.2,24.7c-0.7,3.5-3.8,6.1-7.4,6l-62.6-0.7
		c-3.6,0-6.7-2.6-7.5-6.2l-4.9-24.8c-0.1-0.6-0.2-1.3-0.2-1.9c0-0.9,0.2-1.9,0.6-2.7l1.9-6l1.3-4.2c1.2-2.8,3.9-4.6,6.9-4.5l65,0.8
		c3,0,5.8,1.9,7,4.7l1.4,3.2l3.1,7c0.2,0.5,0.4,1.1,0.5,1.7C173.9,197.4,173.9,198.4,173.7,199.4z M294.8,200l-5.2,24.7
		c-0.7,3.5-3.8,6.1-7.4,6l-62.6-0.7c-3.6,0-6.7-2.6-7.5-6.2l-5.9-24.8c-0.2-0.9-0.2-1.7-0.1-2.6c0.1-0.7,0.3-1.4,0.5-2l2.8-6.6
		l1.5-3.5c1.2-2.8,3.9-4.6,6.9-4.5l64.9,0.8c3,0,5.8,1.9,7,4.7l1.1,2.6l3.4,7.7c0.2,0.3,0.3,0.7,0.4,1
		C295,197.6,295.1,198.8,294.8,200z"/>
	<path class="st11" d="M294.8,200l-5.2,24.7c-0.7,3.5-3.8,6.1-7.4,6l-62.6-0.7c-3.6,0-6.7-2.6-7.5-6.2l-5.9-24.8
		c-0.2-0.9-0.2-1.7-0.1-2.6c0.1-0.7,0.3-1.4,0.5-2l2.8-6.6l1.5-3.5c1.2-2.8,3.9-4.6,6.9-4.5l64.9,0.8c3,0,5.8,1.9,7,4.7l1.1,2.6
		l3.4,7.7c0.2,0.3,0.3,0.7,0.4,1C295,197.6,295.1,198.8,294.8,200z"/>
	<g class="st12">
		<path class="st13" d="M173.7,199.4l-5.2,24.7c-0.7,3.5-3.8,6.1-7.4,6l-62.6-0.7c-3.6,0-6.7-2.6-7.5-6.2l-4.9-24.8
			c-0.1-0.6-0.2-1.3-0.2-1.9c0-0.9,0.2-1.9,0.6-2.7l1.9-6l1.3-4.2c1.2-2.8,3.9-4.6,6.9-4.5l65,0.8c3,0,5.8,1.9,7,4.7l1.4,3.2l3.1,7
			c0.2,0.5,0.4,1.1,0.5,1.7C173.9,197.4,173.9,198.4,173.7,199.4z"/>
	</g>
	<path class="st14" d="M86,93.4c14.9-5.3,39.7-20.8,51.8-20.9s23.8-16.8,23.8-16.8h-57.7L86,93.4z"/>
	<path class="st3" d="M186.8,72.6c0,0-20.3-0.4-49,0S89.9,84.4,86,93.4c0,0-14.4-47.5,11.1-69.5s68-30.7,89.7-18.2"/>
</g>
<polygon class="st15" points="186.8,290.5 175.6,278.3 151.8,284.4 141.2,274 156.2,278.3 169.5,269.3 186.6,274.8 "/>
<polygon class="st16" points="186.8,290.5 198.3,278.3 222.7,284.4 233.5,274 218.2,278.3 204.6,269.3 187,274.8 "/>
<polygon class="st3" points="88.8,173.6 129.4,162.1 173.6,163.8 165.7,172.9 129.9,168.8 "/>
<polygon class="st9" points="290.9,173.6 250.3,162.1 206.1,163.8 214,172.9 249.8,168.8 "/>
</svg>
